<?xml version="1.0" standalone="no"?>
<!DOCTYPE svg PUBLIC "-//W3C//DTD SVG 20010904//EN"
 "http://www.w3.org/TR/2001/REC-SVG-20010904/DTD/svg10.dtd">
<svg version="1.0" xmlns="http://www.w3.org/2000/svg"
 width="1280.000000pt" height="1114.000000pt" viewBox="0 0 1280.000000 1114.000000"
 preserveAspectRatio="xMidYMid meet">
<metadata>
Created by potrace 1.15, written by Peter Selinger 2001-2017
</metadata>
<g transform="translate(0.000000,1114.000000) scale(0.100000,-0.100000)"
fill="#000000" stroke="none">
<path d="M11801 10874 c-78 -140 -144 -254 -146 -254 -2 0 -85 101 -186 225
-101 123 -185 218 -187 210 -2 -8 11 -136 28 -286 17 -149 29 -274 26 -277 -3
-3 -45 5 -93 18 -49 12 -171 45 -273 71 -102 27 -188 48 -192 47 -4 -2 80 -99
188 -217 108 -117 192 -217 187 -221 -4 -4 -55 -26 -113 -48 -355 -136 -424
-165 -405 -172 11 -4 140 -31 288 -61 216 -44 266 -57 262 -69 -3 -8 -73 -119
-155 -246 -83 -128 -150 -235 -150 -238 0 -2 54 20 121 50 67 31 123 53 126
51 2 -3 -8 -11 -24 -19 -21 -10 -29 -21 -31 -46 -2 -19 -9 -32 -17 -32 -21 0
-45 -29 -45 -54 0 -15 -9 -25 -30 -33 -22 -8 -32 -20 -36 -42 -4 -20 -13 -31
-28 -33 -12 -2 -27 -16 -36 -35 -8 -18 -22 -33 -31 -33 -20 0 -49 -31 -49 -53
0 -12 -8 -17 -25 -17 -18 0 -31 -9 -43 -30 -11 -19 -25 -30 -39 -30 -24 0 -53
-24 -53 -44 0 -9 -9 -12 -24 -9 -18 4 -32 -2 -49 -21 -14 -15 -35 -26 -50 -26
-15 0 -32 -9 -40 -20 -11 -16 -21 -19 -40 -15 -18 5 -31 1 -46 -14 -15 -15
-28 -19 -50 -15 -21 5 -34 1 -50 -15 -11 -11 -23 -16 -26 -11 -8 13 -58 13
-71 0 -8 -8 -19 -7 -37 1 -21 10 -31 9 -51 -4 -22 -15 -25 -15 -37 -1 -9 12
-23 14 -50 10 -28 -5 -38 -2 -43 10 -5 12 -16 15 -42 12 -27 -3 -38 0 -45 14
-6 11 -21 18 -40 18 -21 0 -37 8 -51 26 -13 16 -28 24 -42 22 -15 -2 -24 5
-33 25 -9 19 -19 27 -38 27 -18 0 -25 5 -25 18 0 20 -29 52 -48 52 -6 0 -12
12 -14 28 -2 16 -12 31 -25 37 -17 7 -23 18 -23 42 0 23 -7 37 -24 48 -17 11
-22 22 -18 40 5 30 -20 72 -53 87 -13 6 -25 22 -29 39 -6 34 -46 62 -89 64
-18 0 -46 9 -64 18 -39 21 -73 22 -99 3 -13 -10 -33 -13 -61 -9 -37 5 -45 2
-73 -26 -18 -17 -36 -29 -41 -26 -16 10 -69 -25 -75 -50 -4 -18 -13 -25 -30
-25 -26 0 -64 -32 -64 -54 0 -7 -14 -16 -30 -20 -23 -4 -35 -15 -46 -41 -9
-23 -21 -35 -34 -35 -21 0 -50 -35 -50 -62 0 -11 -7 -18 -19 -18 -21 0 -61
-44 -61 -66 0 -8 -6 -14 -13 -14 -20 0 -47 -33 -47 -59 0 -12 -8 -24 -17 -28
-31 -11 -53 -35 -53 -60 0 -16 -8 -27 -24 -33 -30 -11 -50 -45 -43 -71 3 -12
0 -19 -9 -19 -21 0 -54 -37 -54 -61 0 -12 -11 -32 -25 -45 -16 -14 -25 -34
-25 -52 0 -21 -8 -35 -25 -46 -18 -12 -25 -25 -25 -48 0 -20 -9 -39 -27 -55
l-26 -25 -331 331 c-182 182 -336 331 -341 331 -5 0 -265 -255 -577 -567
l-567 -567 -58 33 c-348 194 -806 365 -1188 442 -333 67 -549 89 -875 89 -665
0 -1286 -147 -1882 -445 -688 -344 -1291 -888 -1690 -1525 -317 -506 -469
-894 -597 -1525 -46 -230 -64 -431 -65 -725 -1 -310 30 -629 85 -890 25 -113
102 -388 158 -556 138 -418 422 -916 740 -1297 117 -140 342 -369 484 -490
758 -650 1666 -1003 2657 -1033 572 -18 1142 83 1682 297 152 59 527 248 651
326 317 201 561 397 817 659 373 381 648 791 870 1295 215 487 339 1096 340
1659 0 144 -20 469 -34 555 -3 17 -15 89 -27 160 -44 273 -150 650 -246 875
-25 58 -88 194 -141 303 l-96 198 575 575 574 574 -349 349 c-288 288 -350
355 -352 380 -3 22 0 31 11 31 20 0 37 35 30 62 -4 17 0 25 17 33 18 8 23 18
22 47 -1 31 3 38 22 42 24 6 28 18 24 64 -1 14 4 22 14 22 27 0 48 30 41 61
-5 24 -3 29 12 29 27 0 43 20 43 52 0 20 5 28 18 28 26 0 42 20 42 52 0 20 5
28 18 28 26 0 42 20 42 52 0 23 4 28 25 28 26 0 45 25 45 58 0 15 5 19 19 15
21 -5 51 30 51 60 0 13 5 17 15 13 20 -7 55 28 55 55 0 15 4 19 16 15 23 -9
51 10 58 39 5 18 13 25 29 25 28 0 47 17 47 42 0 16 3 17 21 7 21 -11 38 0 39
25 0 5 7 3 15 -4 12 -10 18 -10 32 1 14 12 16 12 8 0 -6 -11 -4 -13 9 -8 14 6
17 3 12 -8 -4 -11 3 -19 20 -25 21 -8 23 -13 14 -30 -13 -25 -1 -51 33 -69 21
-11 24 -19 20 -46 -4 -26 0 -36 22 -53 15 -12 34 -22 41 -22 10 0 12 -9 8 -29
-5 -22 -1 -32 21 -50 15 -11 36 -21 46 -21 13 0 19 -7 19 -23 0 -32 30 -57 68
-57 27 0 32 -4 32 -24 0 -33 26 -51 71 -50 31 1 39 -2 39 -16 0 -29 27 -43 70
-37 30 4 40 2 40 -9 0 -7 11 -21 25 -30 20 -13 31 -14 56 -5 28 10 34 8 46 -9
16 -22 71 -28 90 -9 9 9 19 6 39 -10 29 -23 55 -21 87 7 17 15 19 15 28 -1 14
-23 60 -22 87 3 20 19 24 20 44 5 29 -20 31 -19 67 11 24 20 34 23 50 15 25
-14 66 1 81 28 8 16 16 19 33 12 34 -11 56 -3 72 30 14 25 19 28 36 18 25 -13
64 9 74 41 5 17 12 20 35 15 22 -5 32 -1 49 21 11 15 21 33 21 40 0 10 9 12
29 8 22 -5 32 -1 45 17 9 13 16 32 16 41 0 14 5 17 24 12 28 -7 55 17 63 56 4
21 10 26 23 23 24 -6 60 31 60 62 0 20 5 25 24 25 28 0 56 33 56 67 0 15 5 21
14 17 22 -8 56 32 56 66 0 21 4 28 14 24 22 -8 46 24 46 62 0 29 3 34 25 34
29 0 49 31 42 66 -3 17 0 24 11 24 9 0 23 7 33 16 16 14 17 8 24 -103 4 -65
10 -163 14 -217 l6 -99 145 256 c80 141 148 257 151 257 4 0 90 -101 191 -224
100 -123 184 -223 186 -221 2 1 -11 121 -27 266 -37 313 -37 322 -13 315 9 -3
123 -33 252 -66 129 -34 250 -65 269 -70 l33 -9 -18 21 c-11 12 -101 112 -202
222 -152 165 -180 201 -165 207 112 42 520 202 528 207 5 3 -118 31 -273 63
-154 31 -286 59 -291 61 -5 1 61 113 148 248 87 135 155 246 152 248 -4 1
-123 -51 -266 -117 -248 -113 -260 -117 -266 -97 -3 12 -12 134 -19 271 -7
138 -16 260 -19 272 -5 16 -38 -35 -150 -233z"/>
</g>
</svg>
